<svg width="35" height="10" viewBox="0 0 35 10" fill="none" xmlns="http://www.w3.org/2000/svg"><path fill-rule="evenodd" clip-rule="evenodd" d="M9.01235 9.49623V4.15361H8.76827L7.02783 9.49623H4.96128H4.9553L3.21882 4.15361H2.97679V9.49623H0V0.500231H2.97679C3.34388 0.495233 3.70296 0.608182 4.00104 0.821088C4.30012 1.03399 4.52316 1.33686 4.63719 1.68571L5.86053 5.84385H6.11759L7.34291 1.68571C7.45794 1.33586 7.68198 1.03199 7.98306 0.81909C8.28314 0.605185 8.64426 0.494234 9.01235 0.500231H11.9891V9.49623H9.01235Z" fill="#52B461"/><path fill-rule="evenodd" clip-rule="evenodd" d="M19.9829 9.496V4.15338H19.7559L17.8744 8.63638C17.7583 8.89227 17.5713 9.11017 17.3352 9.26311C17.0992 9.41504 16.8231 9.496 16.542 9.496H14.0164V0.5H17.0171V5.84263H17.2552L19.1607 1.35462L19.1757 1.32063C19.2957 1.07574 19.4828 0.868842 19.7148 0.724906C19.9469 0.579971 20.215 0.503996 20.488 0.503996H23.0137V9.5H19.9849L19.9829 9.496Z" fill="#52B461"/><path fill-rule="evenodd" clip-rule="evenodd" d="M31.5557 6.51157H28.0268V9.49624H25.026V4.49146H34.9816C34.6725 5.12717 34.1824 5.65794 33.5732 6.01678C32.964 6.37662 32.2619 6.54855 31.5557 6.51157Z" fill="#52B461"/><path fill-rule="evenodd" clip-rule="evenodd" d="M34.928 3.50466H29.5145C27.0419 3.50466 24.9854 2.20524 24.5522 0.5H31.5771C33.4676 0.5 35 1.61651 35 2.9929C35 3.16582 34.976 3.33774 34.928 3.50466Z" fill="url(#paint0_linear_117_17663)"/><defs><linearGradient id="paint0_linear_117_17663" x1="35.009" y1="1.99933" x2="24.5372" y2="1.99933" gradientUnits="userSpaceOnUse"><stop stop-color="#198ECA"/><stop offset="1" stop-color="#1DB5E4"/></linearGradient></defs></svg>