<svg width="32" height="10" viewBox="0 0 32 10" fill="none" xmlns="http://www.w3.org/2000/svg"><path fill-rule="evenodd" clip-rule="evenodd" d="M29.2519 8.16998C29.33 8.51166 29.5633 9.8706 29.5633 9.8706L29.5654 9.87448H32L29.8697 0.16774H27.8408C27.5503 0.134738 27.2566 0.19783 27.0084 0.345372C26.7601 0.493886 26.5722 0.71908 26.4754 0.983103L22.581 9.8706H25.3271C25.3271 9.8706 25.7927 8.43691 25.886 8.16998H29.2519ZM28.0265 2.78953L28.2131 3.61849C28.2131 3.61849 28.7092 5.94422 28.8177 6.43246H26.6458C26.8477 5.86947 27.6856 3.72235 27.6856 3.72235C27.6785 3.72915 27.7194 3.62141 27.7779 3.46804C27.8529 3.27099 27.957 2.99726 28.0265 2.78953Z" fill="#3156FF"/><path d="M20.6106 2.03462C21.2833 2.01327 21.952 2.14043 22.5654 2.40542L22.7947 2.50248L23.1518 0.399039C22.3971 0.131133 21.5981 -0.00380123 20.7932 8.1465e-05C18.2013 8.1465e-05 16.3865 1.32311 16.3703 3.20331C16.3551 4.59622 17.6738 5.36597 18.667 5.82412C19.6915 6.29781 20.0324 6.60941 20.0324 7.03844C19.9435 7.35877 19.7307 7.63541 19.4368 7.81207C19.1429 7.98776 18.7901 8.04989 18.4499 7.9868C17.6009 8.00524 16.7599 7.82662 15.998 7.46845L15.6409 7.30537L15.2849 9.48261C16.2149 9.8272 17.204 10.0029 18.2013 9.99996C20.9667 9.99996 22.7511 8.6983 22.7663 6.69968C22.7815 5.58923 22.0836 4.7428 20.5782 4.06333C19.6479 3.61876 19.089 3.32368 19.089 2.86358C19.1052 2.4491 19.5708 2.03462 20.6106 2.03462Z" fill="#3156FF"/><path d="M12.6665 0.164062L11.0211 9.8708H13.6444L15.2888 0.164062H12.6665Z" fill="#3156FF"/><path d="M4.70595 9.87097H7.48346L11.6112 0.16423H8.83367L6.26006 6.77355L5.98007 5.44082L5.77719 4.45752L5.76724 4.43131L5.05795 0.953391C5.00804 0.727224 4.8786 0.524343 4.69114 0.378742C4.50377 0.233141 4.26984 0.153559 4.02831 0.152588H0V0.453494C0.752708 0.666072 1.47793 0.959217 2.16226 1.32613C2.16226 1.32613 2.32264 1.42901 2.36149 1.45037C3.13743 4.24882 3.92636 7.06475 4.70595 9.87097Z" fill="#3156FF"/></svg>