<svg width="14" height="18" viewBox="0 0 14 18" fill="none" xmlns="http://www.w3.org/2000/svg">
<path fill-rule="evenodd" clip-rule="evenodd" d="M12.8641 12.7932L10.8354 13.5281C10.7702 13.5501 10.6999 13.5471 10.6376 13.5181C10.5743 13.4891 10.5261 13.438 10.501 13.3739L9.44949 10.5384H4.52841L3.47991 13.3679C3.4548 13.432 3.40659 13.484 3.34432 13.5121C3.28205 13.5411 3.21176 13.5451 3.14648 13.5231L1.1208 12.7882C1.08866 12.7782 1.05953 12.7621 1.03342 12.7401C1.00831 12.7191 0.987218 12.6921 0.972153 12.663C0.957089 12.633 0.948049 12.6 0.94604 12.5669C0.944032 12.5339 0.948049 12.4998 0.959097 12.4688L5.05465 1.75555C5.21936 1.38209 5.48954 1.06469 5.83301 0.84141C6.17548 0.619135 6.57617 0.5 6.98492 0.5C7.39367 0.5 7.79439 0.619135 8.13686 0.84141C8.48033 1.06469 8.75051 1.38209 8.91522 1.75555L13.0258 12.4748C13.0369 12.5058 13.0409 12.5399 13.0389 12.5729C13.0369 12.606 13.0278 12.638 13.0128 12.668C12.9977 12.6981 12.9766 12.7241 12.9515 12.7461C12.9254 12.7671 12.8963 12.7832 12.8641 12.7932ZM7.31032 4.45889L6.98795 3.55778V3.55077L5.13501 8.51991H8.84289L7.31032 4.45889ZM0.958116 15.5286H13.0419C13.299 15.5366 13.542 15.6437 13.7208 15.8279C13.8996 16.0122 14 16.2585 14 16.5138C14 16.7701 13.8996 17.0164 13.7208 17.2006C13.542 17.3849 13.299 17.492 13.0419 17.5H0.958116C0.701014 17.492 0.457978 17.3849 0.279212 17.2006C0.100446 17.0164 0 16.7701 0 16.5138C0 16.2585 0.100446 16.0122 0.279212 15.8279C0.457978 15.6437 0.701014 15.5366 0.958116 15.5286Z" fill="#FC0018"/>
</svg>
