<svg width="20" height="20" viewBox="0 0 20 20" fill="none" xmlns="http://www.w3.org/2000/svg">
<path fill-rule="evenodd" clip-rule="evenodd" d="M11 0C11.2652 0 11.5196 0.104999 11.7071 0.292999C11.8946 0.479999 12 0.735 12 1V7C12 7.265 11.8946 7.52 11.7071 7.707C11.5196 7.895 11.2652 8 11 8C10.7348 8 10.4804 7.895 10.2929 7.707C10.1054 7.52 10 7.265 10 7V1C10 0.735 10.1054 0.479999 10.2929 0.292999C10.4804 0.104999 10.7348 0 11 0ZM14 2C14.2652 2 14.5196 2.105 14.7071 2.293C14.8946 2.48 15 2.735 15 3V9C15 9.265 14.8946 9.52 14.7071 9.707C14.5196 9.895 14.2652 10 14 10C13.7348 10 13.4804 9.895 13.2929 9.707C13.1054 9.52 13 9.265 13 9V3C13 2.735 13.1054 2.48 13.2929 2.293C13.4804 2.105 13.7348 2 14 2ZM8 2C8.26522 2 8.51957 2.105 8.70711 2.293C8.89464 2.48 9 2.735 9 3V8C9 8.265 8.89464 8.52 8.70711 8.707C8.51957 8.895 8.26522 9 8 9C7.73478 9 7.48043 8.895 7.29289 8.707C7.10536 8.52 7 8.265 7 8V3C7 2.735 7.10536 2.48 7.29289 2.293C7.48043 2.105 7.73478 2 8 2ZM5 4C5.26522 4 5.51957 4.105 5.70711 4.293C5.89464 4.48 6 4.735 6 5V9C6 9.265 5.89464 9.52 5.70711 9.707C5.51957 9.895 5.26522 10 5 10C4.73478 10 4.48043 9.895 4.29289 9.707C4.10536 9.52 4 9.265 4 9V5C4 4.735 4.10536 4.48 4.29289 4.293C4.48043 4.105 4.73478 4 5 4Z" fill="#F3C4B7"/>
<path opacity="0.5" fill-rule="evenodd" clip-rule="evenodd" d="M12.9998 6.01135V4.98535H15.0108V6.01135H12.9998ZM11.9998 6.01135H9.99974V4.98535H11.9998V6.01135ZM6.99974 4.98535H8.99974V6.01135H6.99974V4.98535ZM4.01074 4.98535H5.99974V6.01135H4.01074V4.98535Z" fill="#D09889"/>
<path fill-rule="evenodd" clip-rule="evenodd" d="M17 11V16.931C16.4199 17.868 15.6104 18.642 14.648 19.179C13.6856 19.716 12.6021 19.998 11.5 20H10.5C8.77609 20 7.1228 19.315 5.90381 18.096C4.68482 16.877 4 15.224 4 13.5V12.5C4.00778 11.993 4.07833 11.489 4.21001 11H17Z" fill="#F3C4B7"/>
<path d="M20 6H0V16H20V6Z" fill="#76A158"/>
<path d="M20 6H0V7H20V6Z" fill="#89AF6D"/>
<path opacity="0.7" d="M5.5 13C6.88071 13 8 11.881 8 10.5C8 9.119 6.88071 8 5.5 8C4.11929 8 3 9.119 3 10.5C3 11.881 4.11929 13 5.5 13Z" fill="#9FD17D"/>
<path fill-rule="evenodd" clip-rule="evenodd" d="M17 16V15H20V16H17ZM10.141 16H0V15H10C10 13.939 10.4214 12.922 11.1716 12.172C11.9217 11.421 12.9391 11 14 11V9C14 8.735 14.1054 8.48 14.2929 8.293C14.4804 8.105 14.7348 8 15 8C15.2652 8 15.5196 8.105 15.7071 8.293C15.8946 8.48 16 8.735 16 9V11.555C16.3726 11.781 16.7062 12.066 16.988 12.399V16H10.141Z" fill="#669248"/>
<path fill-rule="evenodd" clip-rule="evenodd" d="M16.9998 15V16.937H11.3158C11.0384 16.368 10.9238 15.733 10.9847 15.103C11.0456 14.472 11.2796 13.871 11.6608 13.365C12.0421 12.86 12.5557 12.469 13.145 12.237C13.7343 12.005 14.3762 11.941 14.9998 12.051V9C14.9998 8.735 15.1052 8.48 15.2927 8.293C15.4802 8.105 15.7346 8 15.9998 8C16.265 8 16.5194 8.105 16.7069 8.293C16.8944 8.48 16.9998 8.735 16.9998 9V15Z" fill="#F3C4B7"/>
</svg>
