<svg width="24" height="16" viewBox="0 0 24 16" fill="none" xmlns="http://www.w3.org/2000/svg">
<path d="M8 16C12.418 16 16 12.418 16 8C16 3.582 12.418 0 8 0C3.582 0 0 3.582 0 8C0 12.418 3.582 16 8 16Z" fill="#E70025"/>
<path d="M16 16C20.418 16 24 12.418 24 8C24 3.582 20.418 0 16 0C11.582 0 8 3.582 8 8C8 12.418 11.582 16 16 16Z" fill="#F59E2D"/>
<path fill-rule="evenodd" clip-rule="evenodd" d="M12 14.9211C10.784 14.2201 9.77399 13.2121 9.07199 11.9971C8.36999 10.7821 8 9.40311 8 8.00011C8 6.59711 8.36999 5.21811 9.07199 4.00311C9.77399 2.78811 10.784 1.7801 12 1.0791C13.216 1.7801 14.226 2.78811 14.928 4.00311C15.63 5.21811 16 6.59711 16 8.00011C16 9.40311 15.63 10.7821 14.928 11.9971C14.226 13.2121 13.216 14.2201 12 14.9211Z" fill="#FC5D1D"/>
</svg>
