<svg width="19" height="20" viewBox="0 0 19 20" fill="none" xmlns="http://www.w3.org/2000/svg">
<mask id="mask0_117_17646" style="mask-type:alpha" maskUnits="userSpaceOnUse" x="0" y="0" width="19" height="20">
<path fill-rule="evenodd" clip-rule="evenodd" d="M16.996 9.74001C16.999 9.82701 17 9.913 17 10C17 14.142 13.642 17.5 9.5 17.5C5.358 17.5 2 14.142 2 10C2 5.858 5.358 2.5 9.5 2.5C11.024 2.5 12.441 2.954 13.624 3.735L15.257 2.442C13.66 1.224 11.664 0.5 9.5 0.5C4.253 0.5 0 4.753 0 10C0 15.247 4.253 19.5 9.5 19.5C14.747 19.5 19 15.247 19 10C19 9.413 18.947 8.838 18.845 8.28L16.996 9.74001Z" fill="#C4C4C4"/>
</mask>
<g mask="url(#mask0_117_17646)">
<path d="M16.994 9.703C16.998 9.802 17 9.901 17 10C17 14.142 13.642 17.5 9.5 17.5C5.358 17.5 2 14.142 2 10C2 5.858 5.358 2.5 9.5 2.5C11.024 2.5 12.441 2.954 13.624 3.735L15.257 2.442C13.66 1.224 11.664 0.5 9.5 0.5C4.253 0.5 0 4.753 0 10C0 15.247 4.253 19.5 9.5 19.5C14.747 19.5 19 15.247 19 10C19 9.395 18.943 8.803 18.835 8.229L16.994 9.703Z" fill="#24A236"/>
<path d="M8.40401 8.53896C13.045 8.53896 16.808 4.77595 16.808 0.134949C16.808 -4.50605 13.045 -8.26904 8.40401 -8.26904C3.76301 -8.26904 0 -4.50605 0 0.134949C0 4.77595 3.76301 8.53896 8.40401 8.53896Z" fill="#008ACB"/>
<g filter="url(#filter0_f_117_17646)">
<path d="M7.308 27.5388C11.344 27.5388 14.616 24.2668 14.616 20.2309C14.616 16.1949 11.344 12.9229 7.308 12.9229C3.272 12.9229 0 16.1949 0 20.2309C0 24.2668 3.272 27.5388 7.308 27.5388Z" fill="#77F628"/>
</g>
<g filter="url(#filter1_f_117_17646)">
<path d="M0.730972 13.6539C4.76697 13.6539 8.03897 10.3818 8.03897 6.34584C8.03897 2.30984 4.76697 -0.962158 0.730972 -0.962158C-3.30503 -0.962158 -6.57703 2.30984 -6.57703 6.34584C-6.57703 10.3818 -3.30503 13.6539 0.730972 13.6539Z" fill="#19E7E8"/>
</g>
<g filter="url(#filter2_f_117_17646)">
<path d="M-1.52588e-05 19.4999C3.22898 19.4999 5.84598 16.8829 5.84598 13.6539C5.84598 10.4249 3.22898 7.80786 -1.52588e-05 7.80786C-3.22902 7.80786 -5.84601 10.4249 -5.84601 13.6539C-5.84601 16.8829 -3.22902 19.4999 -1.52588e-05 19.4999Z" fill="#DEFA1B"/>
</g>
</g>
<path fill-rule="evenodd" clip-rule="evenodd" d="M18.049 5.85098L9.5 12.5V9.99998L16.999 4.16699C17.405 4.68799 17.757 5.25198 18.049 5.85098Z" fill="#24A236"/>
<path fill-rule="evenodd" clip-rule="evenodd" d="M6 10.3055L9.5 12.5005V10.0005L6 7.81348V10.3055Z" fill="#24A236"/>
<defs>
<filter id="filter0_f_117_17646" x="-8" y="4.92285" width="30.616" height="30.616" filterUnits="userSpaceOnUse" color-interpolation-filters="sRGB">
<feFlood flood-opacity="0" result="BackgroundImageFix"/>
<feBlend mode="normal" in="SourceGraphic" in2="BackgroundImageFix" result="shape"/>
<feGaussianBlur stdDeviation="4" result="effect1_foregroundBlur_117_17646"/>
</filter>
<filter id="filter1_f_117_17646" x="-14.577" y="-8.96216" width="30.616" height="30.616" filterUnits="userSpaceOnUse" color-interpolation-filters="sRGB">
<feFlood flood-opacity="0" result="BackgroundImageFix"/>
<feBlend mode="normal" in="SourceGraphic" in2="BackgroundImageFix" result="shape"/>
<feGaussianBlur stdDeviation="4" result="effect1_foregroundBlur_117_17646"/>
</filter>
<filter id="filter2_f_117_17646" x="-11.846" y="1.80786" width="23.692" height="23.6919" filterUnits="userSpaceOnUse" color-interpolation-filters="sRGB">
<feFlood flood-opacity="0" result="BackgroundImageFix"/>
<feBlend mode="normal" in="SourceGraphic" in2="BackgroundImageFix" result="shape"/>
<feGaussianBlur stdDeviation="3" result="effect1_foregroundBlur_117_17646"/>
</filter>
</defs>
</svg>
