<?xml version="1.0" encoding="utf-8"?><svg xmlns="http://www.w3.org/2000/svg" xmlns:xlink="http://www.w3.org/1999/xlink"><symbol viewBox="0 0 24 24" id="apps-2" xmlns="http://www.w3.org/2000/svg">
    <path d="M7 11.5C4.51472 11.5 2.5 9.48528 2.5 7C2.5 4.51472 4.51472 2.5 7 2.5C9.48528 2.5 11.5 4.51472 11.5 7C11.5 9.48528 9.48528 11.5 7 11.5ZM7 21.5C4.51472 21.5 2.5 19.4853 2.5 17C2.5 14.5147 4.51472 12.5 7 12.5C9.48528 12.5 11.5 14.5147 11.5 17C11.5 19.4853 9.48528 21.5 7 21.5ZM17 11.5C14.5147 11.5 12.5 9.48528 12.5 7C12.5 4.51472 14.5147 2.5 17 2.5C19.4853 2.5 21.5 4.51472 21.5 7C21.5 9.48528 19.4853 11.5 17 11.5ZM17 21.5C14.5147 21.5 12.5 19.4853 12.5 17C12.5 14.5147 14.5147 12.5 17 12.5C19.4853 12.5 21.5 14.5147 21.5 17C21.5 19.4853 19.4853 21.5 17 21.5ZM7 9.5C8.38071 9.5 9.5 8.38071 9.5 7C9.5 5.61929 8.38071 4.5 7 4.5C5.61929 4.5 4.5 5.61929 4.5 7C4.5 8.38071 5.61929 9.5 7 9.5ZM7 19.5C8.38071 19.5 9.5 18.3807 9.5 17C9.5 15.6193 8.38071 14.5 7 14.5C5.61929 14.5 4.5 15.6193 4.5 17C4.5 18.3807 5.61929 19.5 7 19.5ZM17 9.5C18.3807 9.5 19.5 8.38071 19.5 7C19.5 5.61929 18.3807 4.5 17 4.5C15.6193 4.5 14.5 5.61929 14.5 7C14.5 8.38071 15.6193 9.5 17 9.5ZM17 19.5C18.3807 19.5 19.5 18.3807 19.5 17C19.5 15.6193 18.3807 14.5 17 14.5C15.6193 14.5 14.5 15.6193 14.5 17C14.5 18.3807 15.6193 19.5 17 19.5Z"/>
</symbol><symbol viewBox="0 0 24 24" id="arrow-down-fill" xmlns="http://www.w3.org/2000/svg">
    <path d="M12 16L6 10H18L12 16Z"/>
</symbol><symbol viewBox="0 0 24 24" id="arrow-down-s" xmlns="http://www.w3.org/2000/svg">
    <path d="M11.9999 13.1714L16.9497 8.22168L18.3639 9.63589L11.9999 15.9999L5.63599 9.63589L7.0502 8.22168L11.9999 13.1714Z"/>
</symbol><symbol viewBox="0 0 24 24" id="arrow-left-long" xmlns="http://www.w3.org/2000/svg">
    <path d="M22.0003 13.0001L22.0004 11.0002L5.82845 11.0002L9.77817 7.05044L8.36396 5.63623L2 12.0002L8.36396 18.3642L9.77817 16.9499L5.8284 13.0002L22.0003 13.0001Z"/>
</symbol><symbol viewBox="0 0 24 24" id="arrow-left-s" xmlns="http://www.w3.org/2000/svg">
    <path d="M10.8284 12.0007L15.7782 16.9504L14.364 18.3646L8 12.0007L14.364 5.63672L15.7782 7.05093L10.8284 12.0007Z"/>
</symbol><symbol viewBox="0 0 24 24" id="arrow-right-s" xmlns="http://www.w3.org/2000/svg">
    <path d="M13.1717 12.0007L8.22192 7.05093L9.63614 5.63672L16.0001 12.0007L9.63614 18.3646L8.22192 16.9504L13.1717 12.0007Z"/>
</symbol><symbol viewBox="0 0 24 24" id="arrow-up-s" xmlns="http://www.w3.org/2000/svg">
    <path d="M11.9999 10.8284L7.0502 15.7782L5.63599 14.364L11.9999 8L18.3639 14.364L16.9497 15.7782L11.9999 10.8284Z"/>
</symbol><symbol viewBox="0 0 24 24" id="attachment" xmlns="http://www.w3.org/2000/svg">
    <path d="M14 13.5V8C14 5.79086 12.2091 4 10 4C7.79086 4 6 5.79086 6 8V13.5C6 17.0899 8.91015 20 12.5 20C16.0899 20 19 17.0899 19 13.5V4H21V13.5C21 18.1944 17.1944 22 12.5 22C7.80558 22 4 18.1944 4 13.5V8C4 4.68629 6.68629 2 10 2C13.3137 2 16 4.68629 16 8V13.5C16 15.433 14.433 17 12.5 17C10.567 17 9 15.433 9 13.5V8H11V13.5C11 14.3284 11.6716 15 12.5 15C13.3284 15 14 14.3284 14 13.5Z"/>
</symbol><symbol viewBox="0 0 24 24" id="bank-card" xmlns="http://www.w3.org/2000/svg">
    <path d="M3.00488 2.99979H21.0049C21.5572 2.99979 22.0049 3.4475 22.0049 3.99979V19.9998C22.0049 20.5521 21.5572 20.9998 21.0049 20.9998H3.00488C2.4526 20.9998 2.00488 20.5521 2.00488 19.9998V3.99979C2.00488 3.4475 2.4526 2.99979 3.00488 2.99979ZM20.0049 10.9998H4.00488V18.9998H20.0049V10.9998ZM20.0049 8.99979V4.99979H4.00488V8.99979H20.0049ZM14.0049 14.9998H18.0049V16.9998H14.0049V14.9998Z"/>
</symbol><symbol viewBox="0 0 24 24" id="chat" xmlns="http://www.w3.org/2000/svg">
    <path d="M7.29117 20.8242L2 22L3.17581 16.7088C2.42544 15.3056 2 13.7025 2 12C2 6.47715 6.47715 2 12 2C17.5228 2 22 6.47715 22 12C22 17.5228 17.5228 22 12 22C10.2975 22 8.6944 21.5746 7.29117 20.8242ZM7.58075 18.711L8.23428 19.0605C9.38248 19.6745 10.6655 20 12 20C16.4183 20 20 16.4183 20 12C20 7.58172 16.4183 4 12 4C7.58172 4 4 7.58172 4 12C4 13.3345 4.32549 14.6175 4.93949 15.7657L5.28896 16.4192L4.63416 19.3658L7.58075 18.711Z"/>
</symbol><symbol viewBox="0 0 24 24" id="close" xmlns="http://www.w3.org/2000/svg">
    <path d="M11.9997 10.5865L16.9495 5.63672L18.3637 7.05093L13.4139 12.0007L18.3637 16.9504L16.9495 18.3646L11.9997 13.4149L7.04996 18.3646L5.63574 16.9504L10.5855 12.0007L5.63574 7.05093L7.04996 5.63672L11.9997 10.5865Z"/>
</symbol><symbol viewBox="0 0 24 24" id="email" xmlns="http://www.w3.org/2000/svg">
    <path d="M3 3H21C21.5523 3 22 3.44772 22 4V20C22 20.5523 21.5523 21 21 21H3C2.44772 21 2 20.5523 2 20V4C2 3.44772 2.44772 3 3 3ZM20 7.23792L12.0718 14.338L4 7.21594V19H20V7.23792ZM4.51146 5L12.0619 11.662L19.501 5H4.51146Z"/>
</symbol><symbol viewBox="0 0 24 24" id="eye" xmlns="http://www.w3.org/2000/svg">
    <path d="M1.18164 12C2.12215 6.87976 6.60812 3 12.0003 3C17.3924 3 21.8784 6.87976 22.8189 12C21.8784 17.1202 17.3924 21 12.0003 21C6.60812 21 2.12215 17.1202 1.18164 12ZM12.0003 17C14.7617 17 17.0003 14.7614 17.0003 12C17.0003 9.23858 14.7617 7 12.0003 7C9.23884 7 7.00026 9.23858 7.00026 12C7.00026 14.7614 9.23884 17 12.0003 17ZM12.0003 15C10.3434 15 9.00026 13.6569 9.00026 12C9.00026 10.3431 10.3434 9 12.0003 9C13.6571 9 15.0003 10.3431 15.0003 12C15.0003 13.6569 13.6571 15 12.0003 15Z"/>
</symbol><symbol viewBox="0 0 24 24" id="eye-off" xmlns="http://www.w3.org/2000/svg">
    <path d="M4.52047 5.93457L1.39366 2.80777L2.80788 1.39355L22.6069 21.1925L21.1927 22.6068L17.8827 19.2968C16.1814 20.3755 14.1638 21.0002 12.0003 21.0002C6.60812 21.0002 2.12215 17.1204 1.18164 12.0002C1.61832 9.62282 2.81932 7.5129 4.52047 5.93457ZM14.7577 16.1718L13.2937 14.7078C12.902 14.8952 12.4634 15.0002 12.0003 15.0002C10.3434 15.0002 9.00026 13.657 9.00026 12.0002C9.00026 11.537 9.10522 11.0984 9.29263 10.7067L7.82866 9.24277C7.30514 10.0332 7.00026 10.9811 7.00026 12.0002C7.00026 14.7616 9.23884 17.0002 12.0003 17.0002C13.0193 17.0002 13.9672 16.6953 14.7577 16.1718ZM7.97446 3.76015C9.22127 3.26959 10.5793 3.00016 12.0003 3.00016C17.3924 3.00016 21.8784 6.87992 22.8189 12.0002C22.5067 13.6998 21.8038 15.2628 20.8068 16.5925L16.947 12.7327C16.9821 12.4936 17.0003 12.249 17.0003 12.0002C17.0003 9.23873 14.7617 7.00016 12.0003 7.00016C11.7514 7.00016 11.5068 7.01833 11.2677 7.05343L7.97446 3.76015Z"/>
</symbol><symbol viewBox="0 0 24 24" id="file-check" xmlns="http://www.w3.org/2000/svg">
    <path d="M12 20V22H3.9934C3.44476 22 3 21.5447 3 21.0082V2.9918C3 2.44405 3.44749 2 3.9985 2H16L20.9998 7V14H19V8H15V4H5V20H12ZM14.4646 19.4647L18.0001 23.0002L22.9498 18.0505L21.5356 16.6362L18.0001 20.1718L15.8788 18.0505L14.4646 19.4647Z"/>
</symbol><symbol viewBox="0 0 24 24" id="file-list" xmlns="http://www.w3.org/2000/svg">
    <path d="M19 22H5C3.34315 22 2 20.6569 2 19V3C2 2.44772 2.44772 2 3 2H17C17.5523 2 18 2.44772 18 3V15H22V19C22 20.6569 20.6569 22 19 22ZM18 17V19C18 19.5523 18.4477 20 19 20C19.5523 20 20 19.5523 20 19V17H18ZM16 20V4H4V19C4 19.5523 4.44772 20 5 20H16ZM6 7H14V9H6V7ZM6 11H14V13H6V11ZM6 15H11V17H6V15Z"/>
</symbol><symbol viewBox="0 0 24 24" id="file-paper" xmlns="http://www.w3.org/2000/svg">
    <path d="M20 2C21.6569 2 23 3.34315 23 5V7H21V19C21 20.6569 19.6569 22 18 22H4C2.34315 22 1 20.6569 1 19V17H17V19C17 19.5128 17.386 19.9355 17.8834 19.9933L18 20C18.5128 20 18.9355 19.614 18.9933 19.1166L19 19V4H6C5.48716 4 5.06449 4.38604 5.00673 4.88338L5 5V15H3V5C3 3.34315 4.34315 2 6 2H20Z"/>
</symbol><symbol viewBox="0 0 24 24" id="filter" xmlns="http://www.w3.org/2000/svg">
    <path d="M21 4V6H20L15 13.5V22H9V13.5L4 6H3V4H21ZM6.4037 6L11 12.8944V20H13V12.8944L17.5963 6H6.4037Z"/>
</symbol><symbol viewBox="0 0 24 24" id="gift" xmlns="http://www.w3.org/2000/svg">
    <path d="M15.0049 2.00281C17.214 2.00281 19.0049 3.79367 19.0049 6.00281C19.0049 6.73184 18.8098 7.41532 18.4691 8.00392L23.0049 8.00281V10.0028H21.0049V20.0028C21.0049 20.5551 20.5572 21.0028 20.0049 21.0028H4.00488C3.4526 21.0028 3.00488 20.5551 3.00488 20.0028V10.0028H1.00488V8.00281L5.54065 8.00392C5.19992 7.41532 5.00488 6.73184 5.00488 6.00281C5.00488 3.79367 6.79574 2.00281 9.00488 2.00281C10.2001 2.00281 11.2729 2.52702 12.0058 3.35807C12.7369 2.52702 13.8097 2.00281 15.0049 2.00281ZM11.0049 10.0028H5.00488V19.0028H11.0049V10.0028ZM19.0049 10.0028H13.0049V19.0028H19.0049V10.0028ZM9.00488 4.00281C7.90031 4.00281 7.00488 4.89824 7.00488 6.00281C7.00488 7.05717 7.82076 7.92097 8.85562 7.99732L9.00488 8.00281H11.0049V6.00281C11.0049 5.00116 10.2686 4.1715 9.30766 4.02558L9.15415 4.00829L9.00488 4.00281ZM15.0049 4.00281C13.9505 4.00281 13.0867 4.81869 13.0104 5.85355L13.0049 6.00281V8.00281H15.0049C16.0592 8.00281 16.923 7.18693 16.9994 6.15207L17.0049 6.00281C17.0049 4.89824 16.1095 4.00281 15.0049 4.00281Z"/>
</symbol><symbol viewBox="0 0 24 24" id="heart" xmlns="http://www.w3.org/2000/svg">
    <path d="M12.001 4.52853C14.35 2.42 17.98 2.49 20.2426 4.75736C22.5053 7.02472 22.583 10.637 20.4786 12.993L11.9999 21.485L3.52138 12.993C1.41705 10.637 1.49571 7.01901 3.75736 4.75736C6.02157 2.49315 9.64519 2.41687 12.001 4.52853ZM18.827 6.1701C17.3279 4.66794 14.9076 4.60701 13.337 6.01687L12.0019 7.21524L10.6661 6.01781C9.09098 4.60597 6.67506 4.66808 5.17157 6.17157C3.68183 7.66131 3.60704 10.0473 4.97993 11.6232L11.9999 18.6543L19.0201 11.6232C20.3935 10.0467 20.319 7.66525 18.827 6.1701Z"/>
</symbol><symbol viewBox="0 0 24 24" id="information" xmlns="http://www.w3.org/2000/svg">
    <path d="M12 22C6.47715 22 2 17.5228 2 12C2 6.47715 6.47715 2 12 2C17.5228 2 22 6.47715 22 12C22 17.5228 17.5228 22 12 22ZM12 20C16.4183 20 20 16.4183 20 12C20 7.58172 16.4183 4 12 4C7.58172 4 4 7.58172 4 12C4 16.4183 7.58172 20 12 20ZM11 7H13V9H11V7ZM11 11H13V17H11V11Z"/>
</symbol><symbol viewBox="0 0 24 24" id="layout-grid" xmlns="http://www.w3.org/2000/svg">
    <path d="M21 3C21.5523 3 22 3.44772 22 4V20C22 20.5523 21.5523 21 21 21H3C2.44772 21 2 20.5523 2 20V4C2 3.44772 2.44772 3 3 3H21ZM11 13H4V19H11V13ZM20 13H13V19H20V13ZM11 5H4V11H11V5ZM20 5H13V11H20V5Z"/>
</symbol><symbol viewBox="0 0 24 24" id="layout-grid-2" xmlns="http://www.w3.org/2000/svg">
    <path d="M4 10L8 10V14H4V10ZM4 19V16H8V19H4ZM10 19V16H14V19H10ZM16 19V16H20V19H16ZM16 14V10H20V14H16ZM16 8V5H20V8H16ZM14 5V8H10V5H14ZM14 10V14H10V10H14ZM4 8V5H8V8L4 8ZM3 3C2.44772 3 2 3.44772 2 4V20C2 20.5523 2.44772 21 3 21H21C21.5523 21 22 20.5523 22 20V4C22 3.44772 21.5523 3 21 3H3Z"/>
</symbol><symbol viewBox="0 0 24 24" id="list-unordered" xmlns="http://www.w3.org/2000/svg">
    <path d="M8 4H21V6H8V4ZM4.5 6.5C3.67157 6.5 3 5.82843 3 5C3 4.17157 3.67157 3.5 4.5 3.5C5.32843 3.5 6 4.17157 6 5C6 5.82843 5.32843 6.5 4.5 6.5ZM4.5 13.5C3.67157 13.5 3 12.8284 3 12C3 11.1716 3.67157 10.5 4.5 10.5C5.32843 10.5 6 11.1716 6 12C6 12.8284 5.32843 13.5 4.5 13.5ZM4.5 20.4C3.67157 20.4 3 19.7284 3 18.9C3 18.0716 3.67157 17.4 4.5 17.4C5.32843 17.4 6 18.0716 6 18.9C6 19.7284 5.32843 20.4 4.5 20.4ZM8 11H21V13H8V11ZM8 18H21V20H8V18Z"/>
</symbol><symbol viewBox="0 0 24 24" id="map-pin" xmlns="http://www.w3.org/2000/svg">
    <path d="M12 20.8995L16.9497 15.9497C19.6834 13.2161 19.6834 8.78392 16.9497 6.05025C14.2161 3.31658 9.78392 3.31658 7.05025 6.05025C4.31658 8.78392 4.31658 13.2161 7.05025 15.9497L12 20.8995ZM12 23.7279L5.63604 17.364C2.12132 13.8492 2.12132 8.15076 5.63604 4.63604C9.15076 1.12132 14.8492 1.12132 18.364 4.63604C21.8787 8.15076 21.8787 13.8492 18.364 17.364L12 23.7279ZM12 13C13.1046 13 14 12.1046 14 11C14 9.89543 13.1046 9 12 9C10.8954 9 10 9.89543 10 11C10 12.1046 10.8954 13 12 13ZM12 15C9.79086 15 8 13.2091 8 11C8 8.79086 9.79086 7 12 7C14.2091 7 16 8.79086 16 11C16 13.2091 14.2091 15 12 15Z"/>
</symbol><symbol viewBox="0 0 24 24" id="menu" xmlns="http://www.w3.org/2000/svg">
    <path d="M3 4H21V6H3V4ZM3 11H15V13H3V11ZM3 18H21V20H3V18Z"/>
</symbol><symbol viewBox="0 0 24 24" id="more" xmlns="http://www.w3.org/2000/svg">
    <path d="M12 3C10.9 3 10 3.9 10 5C10 6.1 10.9 7 12 7C13.1 7 14 6.1 14 5C14 3.9 13.1 3 12 3ZM12 17C10.9 17 10 17.9 10 19C10 20.1 10.9 21 12 21C13.1 21 14 20.1 14 19C14 17.9 13.1 17 12 17ZM12 10C10.9 10 10 10.9 10 12C10 13.1 10.9 14 12 14C13.1 14 14 13.1 14 12C14 10.9 13.1 10 12 10Z"/>
</symbol><symbol viewBox="0 0 24 24" id="phone" xmlns="http://www.w3.org/2000/svg">
    <path d="M21 16.42V19.9561C21 20.4811 20.5941 20.9167 20.0705 20.9537C19.6331 20.9846 19.2763 21 19 21C10.1634 21 3 13.8366 3 5C3 4.72371 3.01545 4.36687 3.04635 3.9295C3.08337 3.40588 3.51894 3 4.04386 3H7.5801C7.83678 3 8.05176 3.19442 8.07753 3.4498C8.10067 3.67907 8.12218 3.86314 8.14207 4.00202C8.34435 5.41472 8.75753 6.75936 9.3487 8.00303C9.44359 8.20265 9.38171 8.44159 9.20185 8.57006L7.04355 10.1118C8.35752 13.1811 10.8189 15.6425 13.8882 16.9565L15.4271 14.8019C15.5572 14.6199 15.799 14.5573 16.001 14.6532C17.2446 15.2439 18.5891 15.6566 20.0016 15.8584C20.1396 15.8782 20.3225 15.8995 20.5502 15.9225C20.8056 15.9483 21 16.1633 21 16.42Z"/>
</symbol><symbol viewBox="0 0 24 24" id="search" xmlns="http://www.w3.org/2000/svg">
    <path d="M18.031 16.6168L22.3137 20.8995L20.8995 22.3137L16.6168 18.031C15.0769 19.263 13.124 20 11 20C6.032 20 2 15.968 2 11C2 6.032 6.032 2 11 2C15.968 2 20 6.032 20 11C20 13.124 19.263 15.0769 18.031 16.6168ZM16.0247 15.8748C17.2475 14.6146 18 12.8956 18 11C18 7.1325 14.8675 4 11 4C7.1325 4 4 7.1325 4 11C4 14.8675 7.1325 18 11 18C12.8956 18 14.6146 17.2475 15.8748 16.0247L16.0247 15.8748Z"/>
</symbol><symbol viewBox="0 0 24 24" id="send-plane" xmlns="http://www.w3.org/2000/svg">
    <path d="M21.7267 2.95694L16.2734 22.0432C16.1225 22.5716 15.7979 22.5956 15.5563 22.1126L11 13L1.9229 9.36919C1.41322 9.16532 1.41953 8.86022 1.95695 8.68108L21.0432 2.31901C21.5716 2.14285 21.8747 2.43866 21.7267 2.95694ZM19.0353 5.09647L6.81221 9.17085L12.4488 11.4255L15.4895 17.5068L19.0353 5.09647Z"/>
</symbol><symbol viewBox="0 0 24 24" id="shopping-bag" xmlns="http://www.w3.org/2000/svg">
    <path d="M7.00488 7.99966V5.99966C7.00488 3.23824 9.24346 0.999664 12.0049 0.999664C14.7663 0.999664 17.0049 3.23824 17.0049 5.99966V7.99966H20.0049C20.5572 7.99966 21.0049 8.44738 21.0049 8.99966V20.9997C21.0049 21.5519 20.5572 21.9997 20.0049 21.9997H4.00488C3.4526 21.9997 3.00488 21.5519 3.00488 20.9997V8.99966C3.00488 8.44738 3.4526 7.99966 4.00488 7.99966H7.00488ZM7.00488 9.99966H5.00488V19.9997H19.0049V9.99966H17.0049V11.9997H15.0049V9.99966H9.00488V11.9997H7.00488V9.99966ZM9.00488 7.99966H15.0049V5.99966C15.0049 4.34281 13.6617 2.99966 12.0049 2.99966C10.348 2.99966 9.00488 4.34281 9.00488 5.99966V7.99966Z"/>
</symbol><symbol viewBox="0 0 24 24" id="shopping-cart" xmlns="http://www.w3.org/2000/svg">
    <path d="M4.00436 6.41686L0.761719 3.17422L2.17593 1.76001L5.41857 5.00265H20.6603C21.2126 5.00265 21.6603 5.45037 21.6603 6.00265C21.6603 6.09997 21.6461 6.19678 21.6182 6.29L19.2182 14.29C19.0913 14.713 18.7019 15.0027 18.2603 15.0027H6.00436V17.0027H17.0044V19.0027H5.00436C4.45207 19.0027 4.00436 18.5549 4.00436 18.0027V6.41686ZM6.00436 7.00265V13.0027H17.5163L19.3163 7.00265H6.00436ZM5.50436 23.0027C4.67593 23.0027 4.00436 22.3311 4.00436 21.5027C4.00436 20.6742 4.67593 20.0027 5.50436 20.0027C6.33279 20.0027 7.00436 20.6742 7.00436 21.5027C7.00436 22.3311 6.33279 23.0027 5.50436 23.0027ZM17.5044 23.0027C16.6759 23.0027 16.0044 22.3311 16.0044 21.5027C16.0044 20.6742 16.6759 20.0027 17.5044 20.0027C18.3328 20.0027 19.0044 20.6742 19.0044 21.5027C19.0044 22.3311 18.3328 23.0027 17.5044 23.0027Z"/>
</symbol><symbol viewBox="0 0 24 24" id="star" xmlns="http://www.w3.org/2000/svg">
    <path d="M12.0006 18.26L4.94715 22.2082L6.52248 14.2799L0.587891 8.7918L8.61493 7.84006L12.0006 0.5L15.3862 7.84006L23.4132 8.7918L17.4787 14.2799L19.054 22.2082L12.0006 18.26Z"/>
</symbol><symbol viewBox="0 0 24 24" id="telegram" xmlns="http://www.w3.org/2000/svg">
    <path d="M17.0943 7.14643C17.6874 6.93123 17.9818 6.85378 18.1449 6.82608C18.1461 6.87823 18.1449 6.92051 18.1422 6.94825C17.9096 9.39217 16.8906 15.4048 16.3672 18.2026C16.2447 18.8578 16.1507 19.1697 15.5179 18.798C15.1014 18.5532 14.7245 18.2452 14.3207 17.9805C12.9961 17.1121 11.1 15.8189 11.2557 15.8967C9.95162 15.0373 10.4975 14.5111 11.2255 13.8093C11.3434 13.6957 11.466 13.5775 11.5863 13.4525C11.64 13.3967 11.9027 13.1524 12.2731 12.8081C13.4612 11.7035 15.7571 9.56903 15.8151 9.32202C15.8246 9.2815 15.8334 9.13045 15.7436 9.05068C15.6539 8.97092 15.5215 8.9982 15.4259 9.01989C15.2904 9.05064 13.1326 10.4769 8.95243 13.2986C8.33994 13.7192 7.78517 13.9242 7.28811 13.9134L7.29256 13.9156C6.63781 13.6847 5.9849 13.4859 5.32855 13.286C4.89736 13.1546 4.46469 13.0228 4.02904 12.8812C3.92249 12.8466 3.81853 12.8137 3.72083 12.783C8.24781 10.8109 11.263 9.51243 12.7739 8.884C14.9684 7.97124 16.2701 7.44551 17.0943 7.14643ZM19.5169 5.21806C19.2635 5.01244 18.985 4.91807 18.7915 4.87185C18.5917 4.82412 18.4018 4.80876 18.2578 4.8113C17.7814 4.81969 17.2697 4.95518 16.4121 5.26637C15.5373 5.58382 14.193 6.12763 12.0058 7.03736C10.4638 7.67874 7.39388 9.00115 2.80365 11.001C2.40046 11.1622 2.03086 11.3451 1.73884 11.5619C1.46919 11.7622 1.09173 12.1205 1.02268 12.6714C0.970519 13.0874 1.09182 13.4714 1.33782 13.7738C1.55198 14.037 1.82635 14.1969 2.03529 14.2981C2.34545 14.4483 2.76276 14.5791 3.12952 14.6941C3.70264 14.8737 4.27444 15.0572 4.84879 15.233C6.62691 15.7773 8.09066 16.2253 9.7012 17.2866C10.8825 18.0651 12.041 18.8775 13.2243 19.6531C13.6559 19.936 14.0593 20.2607 14.5049 20.5224C14.9916 20.8084 15.6104 21.0692 16.3636 20.9998C17.5019 20.8951 18.0941 19.8479 18.3331 18.5703C18.8552 15.7796 19.8909 9.68351 20.1332 7.13774C20.1648 6.80544 20.1278 6.433 20.097 6.25318C20.0653 6.068 19.9684 5.58448 19.5169 5.21806Z"/>
</symbol><symbol viewBox="0 0 24 24" id="truck" xmlns="http://www.w3.org/2000/svg">
    <path d="M8.96456 18C8.72194 19.6961 7.26324 21 5.5 21C3.73676 21 2.27806 19.6961 2.03544 18H1V6C1 5.44772 1.44772 5 2 5H16C16.5523 5 17 5.44772 17 6V8H20L23 12.0557V18H20.9646C20.7219 19.6961 19.2632 21 17.5 21C15.7368 21 14.2781 19.6961 14.0354 18H8.96456ZM15 7H3V15.0505C3.63526 14.4022 4.52066 14 5.5 14C6.8962 14 8.10145 14.8175 8.66318 16H14.3368C14.5045 15.647 14.7296 15.3264 15 15.0505V7ZM17 13H21V12.715L18.9917 10H17V13ZM17.5 19C18.1531 19 18.7087 18.5826 18.9146 18C18.9699 17.8436 19 17.6753 19 17.5C19 16.6716 18.3284 16 17.5 16C16.6716 16 16 16.6716 16 17.5C16 17.6753 16.0301 17.8436 16.0854 18C16.2913 18.5826 16.8469 19 17.5 19ZM7 17.5C7 16.6716 6.32843 16 5.5 16C4.67157 16 4 16.6716 4 17.5C4 17.6753 4.03008 17.8436 4.08535 18C4.29127 18.5826 4.84689 19 5.5 19C6.15311 19 6.70873 18.5826 6.91465 18C6.96992 17.8436 7 17.6753 7 17.5Z"/>
</symbol><symbol viewBox="0 0 24 24" id="user" xmlns="http://www.w3.org/2000/svg">
    <path d="M4 22C4 17.5817 7.58172 14 12 14C16.4183 14 20 17.5817 20 22H18C18 18.6863 15.3137 16 12 16C8.68629 16 6 18.6863 6 22H4ZM12 13C8.685 13 6 10.315 6 7C6 3.685 8.685 1 12 1C15.315 1 18 3.685 18 7C18 10.315 15.315 13 12 13ZM12 11C14.21 11 16 9.21 16 7C16 4.79 14.21 3 12 3C9.79 3 8 4.79 8 7C8 9.21 9.79 11 12 11Z"/>
</symbol><symbol viewBox="0 0 24 24" id="whatsapp" xmlns="http://www.w3.org/2000/svg">
    <path d="M7.25361 18.4944L7.97834 18.917C9.18909 19.623 10.5651 20 12.001 20C16.4193 20 20.001 16.4183 20.001 12C20.001 7.58172 16.4193 4 12.001 4C7.5827 4 4.00098 7.58172 4.00098 12C4.00098 13.4363 4.37821 14.8128 5.08466 16.0238L5.50704 16.7478L4.85355 19.1494L7.25361 18.4944ZM2.00516 22L3.35712 17.0315C2.49494 15.5536 2.00098 13.8345 2.00098 12C2.00098 6.47715 6.47813 2 12.001 2C17.5238 2 22.001 6.47715 22.001 12C22.001 17.5228 17.5238 22 12.001 22C10.1671 22 8.44851 21.5064 6.97086 20.6447L2.00516 22ZM8.39232 7.30833C8.5262 7.29892 8.66053 7.29748 8.79459 7.30402C8.84875 7.30758 8.90265 7.31384 8.95659 7.32007C9.11585 7.33846 9.29098 7.43545 9.34986 7.56894C9.64818 8.24536 9.93764 8.92565 10.2182 9.60963C10.2801 9.76062 10.2428 9.95633 10.125 10.1457C10.0652 10.2428 9.97128 10.379 9.86248 10.5183C9.74939 10.663 9.50599 10.9291 9.50599 10.9291C9.50599 10.9291 9.40738 11.0473 9.44455 11.1944C9.45903 11.25 9.50521 11.331 9.54708 11.3991C9.57027 11.4368 9.5918 11.4705 9.60577 11.4938C9.86169 11.9211 10.2057 12.3543 10.6259 12.7616C10.7463 12.8783 10.8631 12.9974 10.9887 13.108C11.457 13.5209 11.9868 13.8583 12.559 14.1082L12.5641 14.1105C12.6486 14.1469 12.692 14.1668 12.8157 14.2193C12.8781 14.2457 12.9419 14.2685 13.0074 14.2858C13.0311 14.292 13.0554 14.2955 13.0798 14.2972C13.2415 14.3069 13.335 14.2032 13.3749 14.1555C14.0984 13.279 14.1646 13.2218 14.1696 13.2222V13.2238C14.2647 13.1236 14.4142 13.0888 14.5476 13.097C14.6085 13.1007 14.6691 13.1124 14.7245 13.1377C15.2563 13.3803 16.1258 13.7587 16.1258 13.7587L16.7073 14.0201C16.8047 14.0671 16.8936 14.1778 16.8979 14.2854C16.9005 14.3523 16.9077 14.4603 16.8838 14.6579C16.8525 14.9166 16.7738 15.2281 16.6956 15.3913C16.6406 15.5058 16.5694 15.6074 16.4866 15.6934C16.3743 15.81 16.2909 15.8808 16.1559 15.9814C16.0737 16.0426 16.0311 16.0714 16.0311 16.0714C15.8922 16.159 15.8139 16.2028 15.6484 16.2909C15.391 16.428 15.1066 16.5068 14.8153 16.5218C14.6296 16.5313 14.4444 16.5447 14.2589 16.5347C14.2507 16.5342 13.6907 16.4482 13.6907 16.4482C12.2688 16.0742 10.9538 15.3736 9.85034 14.402C9.62473 14.2034 9.4155 13.9885 9.20194 13.7759C8.31288 12.8908 7.63982 11.9364 7.23169 11.0336C7.03043 10.5884 6.90299 10.1116 6.90098 9.62098C6.89729 9.01405 7.09599 8.4232 7.46569 7.94186C7.53857 7.84697 7.60774 7.74855 7.72709 7.63586C7.85348 7.51651 7.93392 7.45244 8.02057 7.40811C8.13607 7.34902 8.26293 7.31742 8.39232 7.30833Z"/>
</symbol></svg>